<svg width="526" height="526" viewBox="0 0 526 526" fill="none" xmlns="http://www.w3.org/2000/svg">
<g clip-path="url(#clip0_1_3)">
<path fill-rule="evenodd" clip-rule="evenodd" d="M32.875 263C32.8811 211.332 50.2743 161.17 82.2543 120.589C114.234 80.0084 158.94 51.3701 209.175 39.2853C259.409 27.2005 312.249 32.3723 359.187 53.9681C406.124 75.5638 444.429 112.327 467.934 158.339C491.438 204.35 498.775 256.933 488.763 307.621C478.751 358.309 451.972 404.153 412.738 437.772C373.505 471.392 324.099 490.83 272.475 492.957C220.851 495.084 170.014 479.777 128.147 449.5C122.657 445.522 121.046 436.153 128.081 429.117L187.256 369.942C209.417 386.523 236.813 394.56 264.419 392.579C292.025 390.598 317.993 378.733 337.56 359.159L384.046 312.641C387.127 309.559 388.858 305.379 388.858 301.02C388.858 296.661 387.127 292.481 384.046 289.399L360.803 266.156L412.055 214.772C413.623 213.254 414.872 211.438 415.731 209.432C416.589 207.425 417.04 205.268 417.056 203.085C417.071 200.902 416.652 198.739 415.823 196.72C414.994 194.701 413.771 192.868 412.225 191.326C410.68 189.785 408.843 188.567 406.822 187.744C404.8 186.92 402.635 186.507 400.453 186.529C398.27 186.551 396.114 187.008 394.11 187.872C392.106 188.736 390.294 189.991 388.78 191.563L337.528 242.913L291.042 196.428L342.327 145.077C343.957 143.576 345.266 141.76 346.175 139.739C347.085 137.719 347.577 135.535 347.621 133.32C347.666 131.104 347.262 128.903 346.433 126.847C345.605 124.792 344.37 122.925 342.802 121.36C341.234 119.794 339.366 118.561 337.309 117.736C335.253 116.911 333.05 116.51 330.835 116.557C328.62 116.605 326.437 117.099 324.417 118.012C322.398 118.925 320.584 120.236 319.085 121.868L267.8 173.153L244.557 149.943C241.475 146.861 237.294 145.13 232.936 145.13C228.577 145.13 224.397 146.861 221.314 149.943L174.829 196.428C155.264 215.994 143.404 241.955 141.424 269.554C139.443 297.153 147.475 324.541 164.046 346.7L104.871 405.875C85.8038 424.942 84.4888 458.475 108.849 476.129C156.693 510.739 214.792 528.242 273.792 525.819C332.792 523.396 389.26 501.188 434.104 462.771C478.949 424.354 509.56 371.963 521.009 314.034C532.458 256.104 524.079 196.007 497.221 143.419C470.363 90.8305 426.589 48.8107 372.947 24.1249C319.304 -0.560813 258.915 -6.47603 201.502 7.33169C144.089 21.1394 92.9937 53.8666 56.4419 100.244C19.8901 146.621 0.00911448 203.95 0 263C0 267.359 1.7318 271.54 4.81443 274.623C7.89706 277.706 12.078 279.438 16.4375 279.438C20.797 279.438 24.9779 277.706 28.0606 274.623C31.1432 271.54 32.875 267.359 32.875 263Z" fill="#EC4899"/>
</g>
<defs>
<clipPath id="clip0_1_3">
<rect width="526" height="526" fill="white"/>
</clipPath>
</defs>
</svg>
